<svg class="svg-icon" style="width: 1em; height: 1em;vertical-align: middle;fill: currentColor;overflow: hidden;" viewBox="0 0 1024 1024" version="1.1" xmlns="http://www.w3.org/2000/svg"><path d="M470.09792 692.59264c59.04384 0 114.81088-20.93056 159.19104-59.00288l215.73632 216.2688c3.9936 4.01408 9.25696 6.02112 14.49984 6.02112 5.2224 0 10.46528-2.00704 14.45888-5.98016 8.00768-7.9872 8.02816-20.95104 0.04096-28.95872L658.10432 604.50816c80.83456-96.54272 76.12416-241.11104-14.4384-331.8784-46.36672-46.4896-108.01152-72.0896-173.58848-72.0896s-127.22176 25.6-173.58848 72.0896c-95.66208 95.92832-95.66208 251.98592 0 347.89376C342.87616 666.99264 404.52096 692.59264 470.09792 692.59264zM325.5296 301.54752c38.62528-38.72768 89.96864-60.04736 144.5888-60.04736s105.96352 21.31968 144.5888 60.04736c79.7696 79.9744 79.7696 210.08384 0 290.05824-38.62528 38.72768-89.96864 60.04736-144.5888 60.04736s-105.96352-21.31968-144.5888-60.04736C245.76 511.61088 245.76 381.52192 325.5296 301.54752z"  /><path d="M378.368 466.57536l76.86144 0 0 76.86144c0 11.32544 9.17504 20.48 20.48 20.48s20.48-9.15456 20.48-20.48l0-76.86144 76.84096 0c11.30496 0 20.48-9.15456 20.48-20.48s-9.17504-20.48-20.48-20.48l-76.84096 0 0-76.86144c0-11.32544-9.17504-20.48-20.48-20.48s-20.48 9.15456-20.48 20.48l0 76.86144-76.86144 0c-11.30496 0-20.48 9.15456-20.48 20.48S367.04256 466.57536 378.368 466.57536z"  /></svg>