<?xml version="1.0" encoding="UTF-8"?><svg xmlns="http://www.w3.org/2000/svg" viewBox="0 0 20.74 20.2"><defs><style>.d{fill:#fff;}</style></defs><g id="a"/><g id="b"><g id="c"><g><path class="d" d="M6.4,12.83c-.24-1.84-.24-3.66,.01-5.5l7.91,.02c.21,1.14,.3,3.53,0,5.5l-7.93-.02Z"/><path class="d" d="M6.66,5.92c.33-1.45,.78-2.84,1.64-4.06,.23-.32,.5-.62,.79-.88,.37-.34,.81-.58,1.34-.57,.51,0,.94,.23,1.29,.57,.31,.3,.61,.63,.85,.99,.81,1.2,1.23,2.55,1.55,3.96l-7.45-.02Z"/><path class="d" d="M14.08,14.26c-.28,1.24-.65,2.44-1.3,3.53-.27,.45-.61,.85-.94,1.25-.15,.18-.35,.32-.55,.44-.64,.41-1.3,.4-1.92-.04-.34-.25-.66-.54-.92-.87-.99-1.27-1.45-2.77-1.82-4.32l7.45,.02Z"/><path class="d" d="M4.98,7.32c-.05,.93-.13,1.85-.13,2.76,0,.91,.08,1.82,.12,2.77h-.18c-1.4,0-2.81,0-4.21,0-.15,0-.22-.03-.26-.19-.42-1.72-.42-3.44,.02-5.16,.03-.12,.07-.18,.21-.18,1.45,0,2.89,.01,4.34,.01,.04,0,.07,0,.09,0Z"/><path class="d" d="M15.73,7.35c.08,0,.15-.01,.21-.01,1.41,0,2.82,0,4.23,0,.15,0,.21,.03,.25,.19,.43,1.73,.43,3.46-.02,5.18-.03,.11-.06,.17-.2,.17-1.45,0-2.91-.01-4.36-.01-.03,0-.07,0-.12-.01,.23-1.84,.24-3.66,.01-5.5Z"/><path class="d" d="M19.85,5.96h-4.33c-.22-1.1-.52-2.17-.97-3.19-.45-1.02-1.01-1.97-1.84-2.74,.93,.03,3.09,1.09,4.28,2.1,1.25,1.05,2.62,2.88,2.86,3.84Z"/><path class="d" d="M12.68,20.2c.31-.37,.63-.73,.91-1.12,.87-1.23,1.37-2.63,1.73-4.08,.05-.2,.08-.41,.14-.61,.02-.06,.09-.13,.14-.13,1.4,0,2.8,0,4.24,0-.56,1.27-1.32,2.35-2.3,3.29-1.38,1.33-3.01,2.2-4.87,2.64Z"/><path class="d" d="M.9,5.92C2.05,3.15,4.79,.7,8.07,0c-.24,.28-.49,.54-.72,.82-.89,1.15-1.42,2.47-1.81,3.86-.1,.36-.17,.73-.27,1.09-.02,.06-.09,.16-.14,.16-1.4,0-2.81,0-4.23,0Z"/><path class="d" d="M8.03,20.16c-3.32-.84-5.7-2.81-7.17-5.93,.1,0,.16-.01,.22-.01,1.32,0,2.63,0,3.95,0,.16,0,.21,.05,.25,.21,.32,1.52,.78,2.99,1.62,4.31,.3,.47,.69,.88,1.04,1.32,.03,.04,.07,.07,.1,.11Z"/></g></g></g></svg>