<?xml version="1.0" encoding="UTF-8"?><svg xmlns="http://www.w3.org/2000/svg" viewBox="0 0 20.71 20.8"><defs><style>.d{fill:#fff;}</style></defs><g id="a"/><g id="b"><g id="c"><path class="d" d="M10.56,20.8C4.8,20.88,.07,16.29,0,10.56-.07,4.79,4.51,.08,10.25,0c5.65-.08,10.4,4.56,10.46,10.23,.06,5.76-4.43,10.42-10.15,10.57Zm-1.14-13.24c0,.94,0,1.87,0,2.81,0,.25,.06,.47,.23,.65,.96,.97,1.93,1.95,2.9,2.91,.24,.23,.54,.3,.86,.21,.72-.2,.93-1.05,.4-1.6-.77-.79-1.56-1.57-2.34-2.35-.13-.13-.19-.25-.19-.44,0-1.63,0-3.26,0-4.89,0-.12,0-.24-.03-.35-.12-.48-.56-.77-1.05-.71-.44,.06-.79,.45-.79,.92,0,.94,0,1.89,0,2.83Z"/></g></g></svg>