<?xml version="1.0" encoding="UTF-8"?><svg xmlns="http://www.w3.org/2000/svg" viewBox="0 0 20.71 20.8"><defs><style>.d{fill:#fff;}</style></defs><g id="a"/><g id="b"><g id="c"><path class="d" d="M4.33,0c.39,.1,.77,.21,1.08,.48,.06,.05,.12,.09,.17,.14,.92,.92,1.84,1.85,2.76,2.77,.75,.76,.84,1.86,.21,2.65-.21,.27-.47,.46-.79,.58-.58,.2-1.03,.55-1.28,1.13-.16,.37-.19,.75-.08,1.15,.28,1.06,.86,1.94,1.56,2.76,.83,.96,1.78,1.77,2.93,2.33,.49,.24,.99,.44,1.55,.36,.69-.1,1.22-.44,1.54-1.08,.15-.29,.27-.62,.48-.86,.69-.77,1.87-.83,2.67-.17,.09,.07,.17,.15,.25,.23,.89,.89,1.77,1.78,2.66,2.67,.38,.38,.63,.8,.65,1.35,0,.03,.02,.06,.03,.09v.08c-.01,.06-.03,.12-.04,.18-.04,.51-.25,.95-.61,1.31-.61,.62-1.23,1.22-1.84,1.83-.31,.31-.66,.53-1.08,.65-.91,.28-1.81,.16-2.7-.07-1.52-.39-2.89-1.11-4.2-1.96-1.6-1.03-3.05-2.24-4.39-3.58-1.9-1.9-3.55-3.98-4.74-6.4C.52,7.41,.05,6.13,0,4.75c-.03-.94,.2-1.79,.92-2.46,.47-.43,.91-.88,1.35-1.34,.42-.44,.86-.83,1.49-.95h.57Z"/></g></g></svg>