<?xml version="1.0" encoding="UTF-8"?><svg xmlns="http://www.w3.org/2000/svg" viewBox="0 0 90.87 78.8"><defs><style>.d{fill:#0477be;}.e{fill:#bce3f3;}</style></defs><g id="a"/><g id="b"><g id="c"><g><path class="e" d="M10.01,27.61c0-5.13,0-10.26,0-15.39,0-1.3,.27-1.64,1.57-1.83C23.58,8.63,35.09,5.2,46.12,.15c.43-.2,1.11-.2,1.54,0,8.84,4.08,18.05,7.05,27.58,9.02,2.36,.49,4.75,.83,7.12,1.24,1.02,.18,1.38,.57,1.38,1.59,0,9.6,.17,19.2-.06,28.8-.31,12.97-6.14,23.03-16.91,30.21-5.84,3.89-12.26,6.43-19.15,7.73-.77,.15-1.63,0-2.42-.17-8.23-1.82-15.78-5.11-22.26-10.59-7.29-6.16-11.62-14.01-12.59-23.53-.39-3.81-.27-7.66-.35-11.5-.04-1.78,0-3.57,0-5.35ZM46.86,63.09c13.07,0,23.72-10.64,23.72-23.7,0-13.04-10.59-23.66-23.64-23.69-13.08-.03-23.74,10.58-23.76,23.66-.02,13.07,10.62,23.73,23.68,23.74Z"/><path class="d" d="M52.14,44.66c0,2.15,0,4.18,0,6.2,0,1.24-.45,1.69-1.68,1.69-2.39,0-4.77,0-7.16,0-1.24,0-1.69-.45-1.7-1.67,0-2.05,0-4.1,0-6.22-2.05,0-4.01,0-5.98,0-1.56,0-1.92-.37-1.92-1.95,0-2.3,0-4.61,0-6.91,0-1.23,.45-1.67,1.69-1.68,2.03,0,4.05,0,6.2,0,0-.3,0-.56,0-.82,0-1.86,0-3.73,0-5.59,0-.97,.5-1.48,1.47-1.48,2.52-.02,5.04-.01,7.57,0,1.01,0,1.49,.51,1.49,1.55,.01,2.08,0,4.16,0,6.35,1.24,0,2.44,0,3.63,0,.93,0,1.86-.01,2.8,0,.97,.02,1.46,.51,1.47,1.49,.01,2.49,.01,4.99,0,7.48,0,1.07-.49,1.55-1.57,1.55-2.08,.01-4.16,0-6.33,0Z"/><path class="d" d="M9.9,38.76c-2.13,3.63-4.03,7.33-5.03,11.42-.69,2.82-.97,5.67-.14,8.52,1.62,5.52,5.79,7.88,11.08,8.77,4.61,.77,9.21,.34,13.63-.94,16.8-4.87,31.39-13.23,42.52-27.1,3.62-4.51,7.01-9.12,8.98-14.57,.82-2.28,1.4-4.74,1.54-7.15,.43-7.01-3.37-11.7-10.28-13.16-3.73-.79-7.45-.64-11.23-.19,1.06-.25,2.11-.53,3.18-.74,1.14-.22,2.28-.4,3.43-.53,5.02-.56,10.01-.58,14.76,1.45,5.32,2.27,8.19,6.33,8.5,12.12,.29,5.31-1.39,10.14-3.75,14.77-4.5,8.85-10.98,16.13-18.4,22.6-9.91,8.64-20.94,15.43-33.43,19.67-5.95,2.02-12.05,3.35-18.39,3.1-3.55-.14-7-.79-10.12-2.62-4.01-2.34-6.21-5.85-6.65-10.46-.36-3.77,.36-7.37,1.65-10.9,1.9-5.17,4.74-9.79,8.15-14.06Z"/></g></g></g></svg>